name Walk9.mot
datacolumns 19
datarows 30
range 1.75800000 1.78700000
endheader

                time	   L_ground_force_vx	   L_ground_force_vy	   L_ground_force_vz	   L_ground_force_px	   L_ground_force_py	   L_ground_force_pz	   R_ground_force_vx	   R_ground_force_vy	   R_ground_force_vz	   R_ground_force_px	   R_ground_force_py	   R_ground_force_pz	   L_ground_torque_x	   L_ground_torque_y	   L_ground_torque_z	   R_ground_torque_x	   R_ground_torque_y	   R_ground_torque_z	
          1.75800000	         -6.80925391	        524.61278150	         36.47609338	          0.40462488	          0.00000000	          0.21090721	          0.02292895	          0.03240261	          0.00425878	         -0.00005544	          0.00000000	          0.00017929	          0.00000000	         -2.90550303	          0.00000000	          0.00000000	          0.00002716	          0.00000000	
          1.75900000	         -6.31421016	        523.59707559	         36.58554435	          0.40502277	          0.00000000	          0.21088398	          0.02052215	          0.02708611	          0.00396852	         -0.00005166	          0.00000000	          0.00016803	          0.00000000	         -2.92611653	          0.00000000	          0.00000000	          0.00002953	          0.00000000	
          1.76000000	         -5.82427245	        522.65700634	         36.69521177	          0.40542421	          0.00000000	          0.21086080	          0.01824243	          0.02211929	          0.00368794	         -0.00004801	          0.00000000	          0.00015708	          0.00000000	         -2.94639994	          0.00000000	          0.00000000	          0.00003159	          0.00000000	
          1.76100000	         -5.33948758	        521.79255303	         36.80463069	          0.40582917	          0.00000000	          0.21083772	          0.01608761	          0.01749118	          0.00341728	         -0.00004449	          0.00000000	          0.00014648	          0.00000000	         -2.96634816	          0.00000000	          0.00000000	          0.00003336	          0.00000000	
          1.76200000	         -4.85990534	        521.00364070	         36.91334102	          0.40623763	          0.00000000	          0.21081480	          0.01405521	          0.01319048	          0.00315672	         -0.00004111	          0.00000000	          0.00013622	          0.00000000	         -2.98595813	          0.00000000	          0.00000000	          0.00003485	          0.00000000	
          1.76300000	         -4.38557819	        520.29013996	         37.02088956	          0.40664957	          0.00000000	          0.21079207	          0.01214251	          0.00920560	          0.00290639	         -0.00003785	          0.00000000	          0.00012632	          0.00000000	         -3.00522873	          0.00000000	          0.00000000	          0.00003608	          0.00000000	
          1.76400000	         -3.91656053	        519.65186585	         37.12683232	          0.40706497	          0.00000000	          0.21076958	          0.01034654	          0.00552475	          0.00266635	         -0.00003473	          0.00000000	          0.00011678	          0.00000000	         -3.02416062	          0.00000000	          0.00000000	          0.00003707	          0.00000000	
          1.76500000	         -3.45290755	        519.08857619	         37.23073667	          0.40748381	          0.00000000	          0.21074737	          0.00866418	          0.00213598	          0.00243665	         -0.00003174	          0.00000000	          0.00010761	          0.00000000	         -3.04275589	          0.00000000	          0.00000000	          0.00003783	          0.00000000	
          1.76600000	         -2.99467372	        518.59997037	         37.33218329	          0.40790605	          0.00000000	          0.21072547	          0.00709212	         -0.00097273	          0.00221728	         -0.00002889	          0.00000000	          0.00009882	          0.00000000	         -3.06101762	          0.00000000	          0.00000000	          0.00003839	          0.00000000	
          1.76700000	         -2.54191122	        518.18568888	         37.43076781	          0.40833165	          0.00000000	          0.21070391	          0.00562693	         -0.00381346	          0.00200817	         -0.00002617	          0.00000000	          0.00009040	          0.00000000	         -3.07894929	          0.00000000	          0.00000000	          0.00003875	          0.00000000	
          1.76800000	         -2.09466829	        517.84531384	         37.52610206	          0.40876058	          0.00000000	          0.21068273	          0.00426504	         -0.00639824	          0.00180926	         -0.00002358	          0.00000000	          0.00008235	          0.00000000	         -3.09655428	          0.00000000	          0.00000000	          0.00003894	          0.00000000	
          1.76900000	         -1.65298757	        517.57836989	         37.61781506	          0.40919278	          0.00000000	          0.21066196	          0.00300284	         -0.00873907	          0.00162042	         -0.00002112	          0.00000000	          0.00007468	          0.00000000	         -3.11383552	          0.00000000	          0.00000000	          0.00003897	          0.00000000	
          1.77000000	         -1.21690460	        517.38432507	         37.70555384	          0.40962821	          0.00000000	          0.21064165	          0.00183660	         -0.01084786	          0.00144152	         -0.00001879	          0.00000000	          0.00006738	          0.00000000	         -3.13079529	          0.00000000	          0.00000000	          0.00003884	          0.00000000	
          1.77100000	         -0.78644640	        517.26259136	         37.78898396	          0.41006679	          0.00000000	          0.21062182	          0.00076259	         -0.01273635	          0.00127238	         -0.00001659	          0.00000000	          0.00006044	          0.00000000	         -3.14743522	          0.00000000	          0.00000000	          0.00003858	          0.00000000	
          1.77200000	         -0.36163032	        517.21252485	         37.86779004	          0.41050847	          0.00000000	          0.21060253	         -0.00022299	         -0.01441615	          0.00111281	         -0.00001452	          0.00000000	          0.00005387	          0.00000000	         -3.16375651	          0.00000000	          0.00000000	          0.00003820	          0.00000000	
          1.77300000	          0.05753703	        517.23342584	         37.94167636	          0.41095318	          0.00000000	          0.21058381	         -0.00112393	         -0.01589866	          0.00096261	         -0.00001256	          0.00000000	          0.00004765	          0.00000000	         -3.17976020	          0.00000000	          0.00000000	          0.00003770	          0.00000000	
          1.77400000	          0.47106036	        517.32453878	         38.01036751	          0.41140085	          0.00000000	          0.21056569	         -0.00194402	         -0.01719503	          0.00082153	         -0.00001073	          0.00000000	          0.00004178	          0.00000000	         -3.19544745	          0.00000000	          0.00000000	          0.00003710	          0.00000000	
          1.77500000	          0.87895615	        517.48505185	         38.07360911	          0.41185142	          0.00000000	          0.21054821	         -0.00268704	         -0.01831621	          0.00068935	         -0.00000901	          0.00000000	          0.00003625	          0.00000000	         -3.21081989	          0.00000000	          0.00000000	          0.00003642	          0.00000000	
          1.77600000	          1.28125277	        517.71409640	         38.13116823	          0.41230482	          0.00000000	          0.21053140	         -0.00335673	         -0.01927284	          0.00056580	         -0.00000740	          0.00000000	          0.00003105	          0.00000000	         -3.22587973	          0.00000000	          0.00000000	          0.00003565	          0.00000000	
          1.77700000	          1.67799036	        518.01074686	         38.18283356	          0.41276099	          0.00000000	          0.21051528	         -0.00395680	         -0.02007532	          0.00045062	         -0.00000590	          0.00000000	          0.00002618	          0.00000000	         -3.24062989	          0.00000000	          0.00000000	          0.00003482	          0.00000000	
          1.77800000	          2.06922076	        518.37402186	         38.22841526	          0.41321984	          0.00000000	          0.21049987	         -0.00449089	         -0.02073370	          0.00034353	         -0.00000450	          0.00000000	          0.00002162	          0.00000000	         -3.25507390	          0.00000000	          0.00000000	          0.00003392	          0.00000000	
          1.77900000	          2.45500703	        518.80288677	         38.26774467	          0.41368131	          0.00000000	          0.21048518	         -0.00496260	         -0.02125775	          0.00024425	         -0.00000321	          0.00000000	          0.00001737	          0.00000000	         -3.26921576	          0.00000000	          0.00000000	          0.00003297	          0.00000000	
          1.78000000	          2.83542279	        519.29625755	         38.30067402	          0.41414533	          0.00000000	          0.21047122	         -0.00537546	         -0.02165693	          0.00015248	         -0.00000202	          0.00000000	          0.00001342	          0.00000000	         -3.28305973	          0.00000000	          0.00000000	          0.00003198	          0.00000000	
          1.78100000	          3.21055097	        519.85300527	         38.32707610	          0.41461181	          0.00000000	          0.21045802	         -0.00573290	         -0.02194032	          0.00006794	         -0.00000092	          0.00000000	          0.00000975	          0.00000000	         -3.29661007	          0.00000000	          0.00000000	          0.00003095	          0.00000000	
          1.78200000	          3.58048209	        520.47196071	         38.34684396	          0.41508068	          0.00000000	          0.21044557	         -0.00603828	         -0.02211671	         -0.00000966	          0.00000010	          0.00000000	          0.00000635	          0.00000000	         -3.30987091	          0.00000000	          0.00000000	          0.00002990	          0.00000000	
          1.78300000	          3.94531226	        521.15191855	         38.35989071	          0.41555187	          0.00000000	          0.21043388	         -0.00629488	         -0.02219453	         -0.00008064	          0.00000102	          0.00000000	          0.00000322	          0.00000000	         -3.32284615	          0.00000000	          0.00000000	          0.00002882	          0.00000000	
          1.78400000	          4.30514100	        521.89164093	         38.36614931	          0.41602530	          0.00000000	          0.21042295	         -0.00650588	         -0.02218187	         -0.00014527	          0.00000186	          0.00000000	          0.00000035	          0.00000000	         -3.33553950	          0.00000000	          0.00000000	          0.00002772	          0.00000000	
          1.78500000	          4.66006890	        522.68986077	         38.36557247	          0.41650091	          0.00000000	          0.21041277	         -0.00667435	         -0.02208646	         -0.00020386	          0.00000263	          0.00000000	         -0.00000228	          0.00000000	         -3.34795447	          0.00000000	          0.00000000	          0.00002661	          0.00000000	
          1.78600000	          5.01019545	        523.54528502	         38.35813260	          0.41697863	          0.00000000	          0.21040334	         -0.00680328	         -0.02191571	         -0.00025670	          0.00000331	          0.00000000	         -0.00000468	          0.00000000	         -3.36009442	          0.00000000	          0.00000000	          0.00002549	          0.00000000	
          1.78700000	          5.35561682	        524.45659809	         38.34382174	          0.41745841	          0.00000000	          0.21039463	         -0.00689554	         -0.02167666	         -0.00030407	          0.00000393	          0.00000000	         -0.00000686	          0.00000000	         -3.37196251	          0.00000000	          0.00000000	          0.00002438	          0.00000000	
